#!OML:ASF H:\ManfredETheater\Project 1\Capture day 1\Session 1\subject.ASF
:FULLY-SPECIFIED
:DEGREES
93
root 2.96349 22.2339 0.763089 -170.86 -40.7613 169.278
lowerback 13.9168 -6.08671 -7.38072
upperback 0.442137 -9.22716 1.75412
thorax -5.81913 -4.35118 7.61561
lowerneck -15.6334 -1.22317 -4.4135
upperneck 3.49098 -0.886912 -0.692065
head 3.99007 -0.623363 0.484528
rclavicle -9.24349e-014 -6.36111e-015
rhumerus -64.1455 0.699513 -32.1298
rradius 30.3635
rwrist -9.45174
rhand -30.9937 0.519306
rfingers 7.12502
rthumb -4.27702 -29.4175
lclavicle -9.24349e-014 -6.36111e-015
lhumerus -3.18874 -10.5853 60.1047
lradius 114.685
lwrist 17.6592
lhand -27.2017 -13.0452
lfingers 7.12502
lthumb -0.61488 16.9337
rfemur -62.8411 -10.9866 -3.16793
rtibia 26.5565
rfoot -0.622126 -15.841
rtoes -26.1944
lfemur 18.2393 -2.88838 -21.0171
ltibia 45.8271
lfoot 28.6816 -10.1523
ltoes 7.73512
94
root 2.79136 22.3056 0.267502 -171.523 -40.9909 169.336
lowerback 13.676 -6.0957 -7.41319
upperback 0.505343 -9.22504 1.77382
thorax -5.60996 -4.36608 7.61184
lowerneck -15.6168 -1.27845 -4.57509
upperneck 4.3667 -0.894235 -0.764402
head 3.82264 -0.637719 0.421426
rclavicle -5.725e-014 -3.18055e-015
rhumerus -64.6129 0.679348 -30.6936
rradius 30.2566
rwrist -10.1839
rhand -30.7093 0.33005
rfingers 7.12502
rthumb -4.00246 -29.6121
lclavicle -5.725e-014 -3.18055e-015
lhumerus -4.96104 -10.668 59.3818
lradius 114.192
lwrist 17.6522
lhand -26.9967 -13.353
lfingers 7.12502
lthumb -0.416854 16.6264
rfemur -61.4395 -10.9468 -2.86271
rtibia 25.4256
rfoot -0.353401 -16.1425
rtoes -25.61
lfemur 19.0066 -2.83172 -20.1665
ltibia 48.1461
lfoot 28.5458 -10.0855
ltoes 7.10825
95
root 2.61989 22.3667 -0.229677 -172.198 -41.2536 169.529
lowerback 13.382 -6.14013 -7.33864
upperback 0.537521 -9.24829 1.80057
thorax -5.41577 -4.39331 7.55564
lowerneck -15.5473 -1.29526 -4.62274
upperneck 4.89102 -0.873102 -0.886952
head 3.974 -0.637753 0.392024
rclavicle 3.45885e-014 1.90833e-014
rhumerus -65.0282 0.895209 -29.4932
rradius 30.1937
rwrist -10.5896
rhand -30.3582 0.295984
rfingers 7.12502
rthumb -3.66333 -29.6523
lclavicle 3.45885e-014 1.90833e-014
lhumerus -6.68862 -10.7535 58.4878
lradius 113.841
lwrist 17.4584
lhand -26.7762 -13.6866
lfingers 7.12502
lthumb -0.203938 16.2931
rfemur -60.1511 -10.9269 -2.444
rtibia 24.5555
rfoot -0.118607 -16.4867
rtoes -24.9457
lfemur 19.6437 -2.85694 -19.1769
ltibia 50.4325
lfoot 28.4901 -9.88893
ltoes 6.34552
96
root 2.44946 22.417 -0.728147 -172.858 -41.5628 169.817
lowerback 13.0319 -6.22374 -7.19296
upperback 0.543664 -9.30876 1.82816
thorax -5.22314 -4.43877 7.4601
lowerneck -15.4923 -1.2844 -4.59533
upperneck 5.41371 -0.830111 -0.998081
head 4.12669 -0.625671 0.355876
rclavicle -8.74653e-015 9.54166e-015
rhumerus -65.3688 1.27495 -28.4734
rradius 30.1616
rwrist -10.6875
rhand -29.9888 0.415587
rfingers 7.12502
rthumb -3.30667 -29.5385
lclavicle -8.74653e-015 9.54166e-015
lhumerus -8.38269 -10.8304 57.4115
lradius 113.65
lwrist 17.0673
lhand -26.5523 -13.9959
lfingers 7.12502
lthumb 0.012286 15.9839
rfemur -58.9464 -10.91 -1.99921
rtibia 23.9
rfoot 0.0953992 -16.9127
rtoes -24.1902
lfemur 20.1392 -2.98249 -18.09
ltibia 52.6747
lfoot 28.5745 -9.60238
ltoes 5.65167
97
root 2.2805 22.4559 -1.2274 -173.485 -41.9221 170.166
lowerback 12.6337 -6.34439 -7.00663
upperback 0.524131 -9.4101 1.851
thorax -5.03193 -4.50353 7.33692
lowerneck -15.4415 -1.24735 -4.4918
upperneck 5.92618 -0.767979 -1.10288
head 4.27652 -0.602458 0.311158
rclavicle 5.66536e-014 -3.18055e-015
rhumerus -65.6292 1.76773 -27.585
rradius 30.1645
rwrist -10.5635
rhand -29.633 0.636028
rfingers 7.12502
rthumb -2.96301 -29.3231
lclavicle 5.66536e-014 -3.18055e-015
lhumerus -10.0574 -10.8976 56.1495
lradius 113.621
lwrist 16.5038
lhand -26.349 -14.2616
lfingers 7.12502
lthumb 0.208659 15.718
rfemur -57.7997 -10.8683 -1.60264
rtibia 23.4129
rfoot 0.314077 -17.4411
rtoes -23.3497
lfemur 20.4918 -3.2183 -16.9472
ltibia 54.8607
lfoot 28.8227 -9.26482
ltoes 5.1203
98
root 2.11322 22.4831 -1.7268 -174.057 -42.331 170.534
lowerback 12.1996 -6.49606 -6.8095
upperback 0.481515 -9.55063 1.86266
thorax -4.84337 -4.58623 7.19641
lowerneck -15.3904 -1.19134 -4.33251
upperneck 6.41521 -0.693889 -1.19725
head 4.41887 -0.571368 0.261872
rclavicle -3.73715e-014 -4.77083e-015
rhumerus -65.7975 2.31476 -26.7663
rradius 30.2005
rwrist -10.3219
rhand -29.3082 0.905511
rfingers 7.12502
rthumb -2.64933 -29.0578
lclavicle -3.73715e-014 -4.77083e-015
lhumerus -11.7197 -10.9542 54.7084
lradius 113.75
lwrist 15.845
lhand -26.1533 -14.4501
lfingers 7.12502
lthumb 0.397679 15.5293
rfemur -56.6845 -10.7755 -1.31928
rtibia 23.0451
rfoot 0.568035 -18.0753
rtoes -22.4254
lfemur 20.7048 -3.56124 -15.7899
ltibia 56.9785
lfoot 29.245 -8.90754
ltoes 4.88141
99
root 1.9477 22.4985 -2.22619 -174.576 -42.7823 170.891
lowerback 11.744 -6.66891 -6.63238
upperback 0.423117 -9.72295 1.86177
thorax -4.65431 -4.68321 7.0538
lowerneck -15.3425 -1.12461 -4.13967
upperneck 6.88532 -0.614542 -1.27995
head 4.55597 -0.536051 0.211359
rclavicle -1.3577e-013 1.74931e-014
rhumerus -65.869 2.87611 -25.9654
rradius 30.2766
rwrist -10.082
rhand -29.015 1.17339
rfingers 7.12502
rthumb -2.36618 -28.7932
lclavicle -1.3577e-013 1.74931e-014
lhumerus -13.3678 -10.9954 53.1128
lradius 114.021
lwrist 15.1908
lhand -25.9547 -14.5441
lfingers 7.12502
lthumb 0.589456 15.4349
rfemur -55.5694 -10.6004 -1.19117
rtibia 22.7522
rfoot 0.874465 -18.8028
rtoes -21.4223
lfemur 20.8013 -3.99972 -14.6473
ltibia 59.0167
lfoot 29.8235 -8.54904
ltoes 4.94275
